<svg width="25" height="25" viewBox="0 0 25 25" fill="none" xmlns="http://www.w3.org/2000/svg">
<g clip-path="url(#clip0)">
<path d="M24.6131 0.684498C24.3078 0.243086 23.8504 6.10352e-05 23.3251 6.10352e-05C23.0396 6.10352e-05 22.7371 0.0710748 22.4262 0.211524L1.2642 9.75961C0.141152 10.2662 -0.0101002 11.0264 -0.00037275 11.4344C0.00935469 11.8425 0.196847 12.5914 1.3424 13.0222C1.34926 13.0247 1.35613 13.0271 1.363 13.0294L5.75256 14.5141L8.12644 22.5376C8.45012 23.6314 9.17662 24.3109 10.0227 24.3109C10.5562 24.3109 11.0809 24.0467 11.5402 23.5471L14.2553 20.5922L18.1934 24.3402C18.1938 24.3406 18.1944 24.3409 18.1947 24.3413L18.2321 24.3769C18.2356 24.3801 18.2392 24.3835 18.2426 24.3866C18.6803 24.7879 19.1581 24.9998 19.6249 25.0001H19.6251C20.537 25.0001 21.2631 24.2022 21.4746 22.9677L24.942 2.73127C25.0812 1.91901 24.9645 1.19219 24.6131 0.684498ZM7.22102 14.2321L15.6898 9.11845L10.4166 15.7412C10.3302 15.8497 10.269 15.9824 10.2388 16.1269L9.22202 20.9951L7.22102 14.2321ZM10.5478 22.2734C10.5127 22.3115 10.4774 22.3455 10.4421 22.3768L11.3855 17.8608L13.1016 19.4941L10.5478 22.2734ZM23.5063 2.38748L20.0389 22.6241C20.0056 22.8178 19.8989 23.2685 19.6249 23.2685C19.4894 23.2685 19.3193 23.1812 19.1452 23.0227L14.6827 18.7759C14.6822 18.7752 14.6814 18.7745 14.6806 18.7741L12.0254 16.2469L19.6512 6.66949C19.8953 6.36289 19.9174 5.8933 19.7036 5.55649C19.4896 5.21969 19.1019 5.11373 18.7847 5.30535L6.24236 12.8788L1.7931 11.3742L22.9486 1.82906C23.1273 1.74835 23.2521 1.73144 23.3251 1.73144C23.3699 1.73144 23.4497 1.73776 23.4792 1.78082C23.5181 1.83695 23.5677 2.02835 23.5063 2.38748Z" fill="#95989A"/>
</g>
<defs>
<clipPath id="clip0">
<rect width="25" height="25" fill="white"/>
</clipPath>
</defs>
</svg>
