<svg width="25" height="25" viewBox="0 0 25 25" fill="none" xmlns="http://www.w3.org/2000/svg">
<g clip-path="url(#clip0)">
<path d="M24.8675 18.2499C24.8372 18.1846 24.809 18.1305 24.7828 18.0872C24.349 17.306 23.5201 16.3471 22.2966 15.2103L22.2708 15.1843L22.2578 15.1715L22.2447 15.1584H22.2316C21.6763 14.6291 21.3247 14.2731 21.1774 14.0909C20.908 13.7438 20.8476 13.3924 20.9949 13.0364C21.0989 12.7674 21.4897 12.1993 22.1664 11.3314C22.5223 10.8715 22.8042 10.5028 23.0123 10.2251C24.5137 8.22912 25.1646 6.95367 24.9649 6.39824L24.8873 6.26844C24.8352 6.1903 24.7007 6.11881 24.4841 6.05362C24.2669 5.98856 23.9893 5.9778 23.6507 6.02116L19.9021 6.04705C19.8414 6.02554 19.7547 6.02754 19.6417 6.05362C19.5288 6.0797 19.4724 6.09278 19.4724 6.09278L19.4072 6.12538L19.3554 6.16454C19.312 6.19044 19.2642 6.23598 19.2121 6.30109C19.1603 6.36596 19.1169 6.4421 19.0823 6.52886C18.6742 7.57886 18.2101 8.55509 17.6894 9.45751C17.3683 9.99562 17.0734 10.462 16.8041 10.8568C16.5351 11.2516 16.3095 11.5424 16.1274 11.7288C15.9451 11.9154 15.7805 12.0649 15.6327 12.1778C15.4851 12.2908 15.3724 12.3385 15.2944 12.3211C15.2162 12.3036 15.1426 12.2863 15.0729 12.269C14.9515 12.1908 14.8538 12.0845 14.7802 11.95C14.7063 11.8156 14.6565 11.6463 14.6305 11.4424C14.6046 11.2383 14.5892 11.0628 14.5849 10.9152C14.5808 10.7678 14.5827 10.5593 14.5915 10.2903C14.6005 10.0212 14.6046 9.83911 14.6046 9.74364C14.6046 9.41384 14.611 9.0559 14.6239 8.66975C14.637 8.2836 14.6476 7.97764 14.6565 7.75224C14.6654 7.52661 14.6695 7.2879 14.6695 7.03624C14.6695 6.78458 14.6542 6.58721 14.6239 6.44397C14.594 6.3009 14.5481 6.16203 14.4876 6.0274C14.4267 5.89291 14.3376 5.78887 14.2207 5.71502C14.1036 5.64125 13.958 5.58271 13.7847 5.53922C13.3247 5.43514 12.739 5.37883 12.0273 5.37008C10.4134 5.35275 9.37631 5.45697 8.91639 5.6826C8.73417 5.77793 8.56927 5.90818 8.42183 6.07295C8.26559 6.26393 8.24379 6.36815 8.35659 6.38529C8.87732 6.4633 9.24597 6.6499 9.46293 6.94492L9.54112 7.10125C9.60194 7.21404 9.66267 7.41373 9.72344 7.70004C9.78412 7.98635 9.82328 8.30307 9.84052 8.65001C9.88383 9.28359 9.88383 9.82593 9.84052 10.2771C9.79707 10.7284 9.75604 11.0798 9.71687 11.3315C9.67771 11.5831 9.61917 11.7871 9.54112 11.9432C9.46293 12.0994 9.41092 12.1949 9.38484 12.2295C9.3588 12.2642 9.3371 12.286 9.31987 12.2946C9.20708 12.3378 9.08977 12.3598 8.96837 12.3598C8.84678 12.3598 8.69934 12.299 8.52582 12.1775C8.35235 12.0559 8.17231 11.889 7.9857 11.6763C7.7991 11.4636 7.58866 11.1664 7.35427 10.7847C7.12008 10.4029 6.87708 9.95167 6.62542 9.43103L6.4172 9.05344C6.28704 8.81054 6.10924 8.45684 5.88361 7.99268C5.65785 7.52834 5.4583 7.07918 5.28482 6.6453C5.21548 6.46307 5.11131 6.32434 4.97248 6.22887L4.90733 6.18971C4.86402 6.15506 4.7945 6.11827 4.69912 6.07906C4.60361 6.0399 4.50395 6.01181 4.39973 5.99453L0.833215 6.02043C0.468763 6.02043 0.221479 6.10299 0.0912725 6.2679L0.0391624 6.3459C0.0131301 6.38935 0 6.45874 0 6.55425C0 6.64972 0.0260323 6.76689 0.0781424 6.90562C0.598788 8.12927 1.16498 9.30939 1.77671 10.4461C2.38845 11.5829 2.92004 12.4986 3.37116 13.1924C3.82237 13.8867 4.28228 14.542 4.75091 15.1579C5.21954 15.7741 5.52974 16.1689 5.68151 16.3424C5.83346 16.5162 5.95282 16.6461 6.03958 16.7329L6.36505 17.0452C6.57331 17.2535 6.87913 17.503 7.28265 17.7936C7.68627 18.0845 8.1331 18.3708 8.62338 18.653C9.11375 18.9348 9.68423 19.1648 10.3351 19.3426C10.9859 19.5207 11.6194 19.5921 12.2355 19.5576H13.7325C14.036 19.5314 14.266 19.436 14.4224 19.2712L14.4742 19.206C14.509 19.1542 14.5416 19.0737 14.5717 18.9654C14.6021 18.857 14.6173 18.7375 14.6173 18.6075C14.6084 18.2344 14.6368 17.8982 14.7017 17.5988C14.7666 17.2996 14.8405 17.0739 14.9232 16.922C15.0059 16.7702 15.0992 16.6421 15.203 16.5382C15.307 16.4341 15.3811 16.3711 15.4246 16.3494C15.4679 16.3275 15.5024 16.3127 15.5284 16.3038C15.7367 16.2344 15.9818 16.3016 16.2641 16.5057C16.5461 16.7097 16.8107 16.9615 17.0582 17.2607C17.3055 17.5603 17.6026 17.8963 17.9497 18.2694C18.2969 18.6426 18.6006 18.92 18.8608 19.1025L19.121 19.2587C19.2948 19.3629 19.5205 19.4584 19.7982 19.5451C20.0754 19.6319 20.3183 19.6536 20.5269 19.6102L23.859 19.5582C24.1886 19.5582 24.445 19.5037 24.6269 19.3954C24.8092 19.2869 24.9175 19.1674 24.9524 19.0374C24.9872 18.9073 24.9891 18.7597 24.959 18.5947C24.9282 18.43 24.8977 18.3149 24.8675 18.2499Z" fill="#95989A"/>
</g>
<defs>
<clipPath id="clip0">
<rect width="25" height="25" fill="white"/>
</clipPath>
</defs>
</svg>
